<?xml version="1.0" encoding="UTF-8"?>
<svg width="126px" height="66px" viewBox="0 0 126 66" version="1.1" xmlns="http://www.w3.org/2000/svg" xmlns:xlink="http://www.w3.org/1999/xlink">
    <!-- Generator: Sketch 46.2 (44496) - http://www.bohemiancoding.com/sketch -->
    <title>age-bg</title>
    <desc>Created with Sketch.</desc>
    <defs></defs>
    <g id="Page-1" stroke="none" stroke-width="1" fill="none" fill-rule="evenodd">
        <g id="Desktop-Home" transform="translate(-526.000000, -639.000000)">
            <g id="SOON" transform="translate(43.000000, 466.000000)">
                <g id="ROW" transform="translate(0.000000, 52.000000)">
                    <g id="Columns">
                        <g id="Col" transform="translate(324.655720, 0.000000)">
                            <g id="age-bg" transform="translate(157.177606, 98.977412)">
                                <path d="M14.2113972,19.0310439 L72.9989286,35.0636028 L72.9989286,35.0636028 C75.4983091,35.7452348 77.5128839,37.5949732 78.4048803,40.0272289 L98.3182776,94.3261882 L98.3182776,94.3261882 C99.0789112,96.4002498 98.0141674,98.6982243 95.9401058,99.4588579 C95.1605925,99.7447337 94.3114379,99.7809553 93.5104118,99.5624992 L34.7228805,83.5299402 L34.7228805,83.5299402 C32.2235,82.8483082 30.2089252,80.9985699 29.3169288,78.5663142 L9.40353153,24.2673549 L9.40353153,24.2673549 C8.64289792,22.1932932 9.70764171,19.8953187 11.7817033,19.1346851 C12.5612166,18.8488093 13.4103712,18.8125877 14.2113972,19.0310439 Z" id="Rectangle-3-Copy-4" fill="#7098FA" style="mix-blend-mode: multiply;" transform="translate(53.860905, 59.296772) rotate(-15.000000) translate(-53.860905, -59.296772) "></path>
                                <path d="M34.8046987,11.0310439 L93.59223,27.0636028 L93.59223,27.0636028 C96.0916106,27.7452348 98.1061854,29.5949732 98.9981817,32.0272289 L118.911579,86.3261882 L118.911579,86.3261882 C119.672213,88.4002498 118.607469,90.6982243 116.533407,91.4588579 C115.753894,91.7447337 114.904739,91.7809553 114.103713,91.5624992 L55.316182,75.5299402 L55.316182,75.5299402 C52.8168014,74.8483082 50.8022266,72.9985699 49.9102303,70.5663142 L29.996833,16.2673549 L29.996833,16.2673549 C29.2361994,14.1932932 30.3009432,11.8953187 32.3750048,11.1346851 C33.154518,10.8488093 34.0036726,10.8125877 34.8046987,11.0310439 Z" id="Rectangle-3-Copy-7" fill="#F459BA" style="mix-blend-mode: multiply;" transform="translate(74.454206, 51.296772) rotate(-15.000000) translate(-74.454206, -51.296772) "></path>
                            </g>
                        </g>
                    </g>
                </g>
            </g>
        </g>
    </g>
</svg>