<?xml version="1.0" encoding="UTF-8"?>
<svg width="172px" height="118px" viewBox="0 0 172 118" version="1.1" xmlns="http://www.w3.org/2000/svg" xmlns:xlink="http://www.w3.org/1999/xlink">
    <!-- Generator: Sketch 46.2 (44496) - http://www.bohemiancoding.com/sketch -->
    <title>age-icon</title>
    <desc>Created with Sketch.</desc>
    <defs>
        <polygon id="path-1" points="2.85220118e-14 0 42 0 42 41 0 41 0 2.7843881e-14"></polygon>
    </defs>
    <g id="Page-1" stroke="none" stroke-width="1" fill="none" fill-rule="evenodd">
        <g id="Desktop-Home" transform="translate(-93.000000, -1057.000000)">
            <g id="ABOUT" transform="translate(54.000000, 875.000000)">
                <g id="Content">
                    <g id="Columns" transform="translate(0.000000, 121.000000)">
                        <g id="Col">
                            <g id="age-icon" transform="translate(43.000000, 61.000000)">
                                <path d="M16,114 C16,76.4446779 45.3255067,46 81.4997354,46 C117.674493,46 147,76.4446779 147,114" id="Stroke-1" stroke="#F459BA" stroke-width="7" stroke-linecap="round"></path>
                                <path d="M0,114 C0,104.611601 7.16303004,97 16,97" id="Stroke-3" stroke="#F459BA" stroke-width="7" stroke-linecap="round"></path>
                                <path d="M147,97 C155.836435,97 163,104.611033 163,114" id="Stroke-5" stroke="#F459BA" stroke-width="7" stroke-linecap="round"></path>
                                <path d="M69,106 C61.238281,99.5246388 50.577705,98.2242185 43,102.421968" id="Stroke-7" stroke="#F459BA" stroke-width="7" stroke-linecap="round"></path>
                                <path d="M92,106 C99.7620765,99.5246388 110.421934,98.2242185 118,102.421968" id="Stroke-9" stroke="#F459BA" stroke-width="7" stroke-linecap="round"></path>
                                <path d="M72.1921399,47.1366063 C81.0000925,46.3369124 87.9371533,48.9597953 90.4219715,57.3506469 C92.4103368,64.0635543 89.1037155,71.2884918 83.0374902,73.488639 C78.183795,75.2479656 72.9603139,72.3215946 71.3698259,66.9514948 C70.0975377,62.6551888 72.2135915,58.030528 76.0963434,56.6232929" id="Stroke-11" stroke="#F459BA" stroke-width="7" stroke-linecap="round"></path>
                                <g id="Group-15" transform="translate(126.000000, 0.000000)">
                                    <mask id="mask-2" fill="white">
                                        <use xlink:href="#path-1"></use>
                                    </mask>
                                    <g id="Clip-14"></g>
                                    <path d="M40.924222,17.8534324 C41.6402365,18.5548732 42,19.4365726 42,20.5 C42,21.5644071 41.6402365,22.4470861 40.924222,23.1465676 C40.2051968,23.8475186 39.302025,24.1967695 38.2126994,24.1967695 L24.7870498,24.1967695 L24.7870498,37.2194691 C24.7870498,38.284366 24.4272863,39.1807603 23.7112717,39.9076725 C22.9927483,40.6365439 22.0895765,41 21.0002509,41 C19.9089182,41 19.0052446,40.6365439 18.2887283,39.9076725 C17.5712084,39.1807603 17.2129502,38.284366 17.2129502,37.2194691 L17.2129502,24.1967695 L3.78730064,24.1967695 C2.69646974,24.1967695 1.79329789,23.8475186 1.07627979,23.1465676 C0.358258169,22.4470861 0,21.5644071 0,20.5 C0,19.4365726 0.358258169,18.5548732 1.07627979,17.8534324 C1.79329789,17.1534611 2.69646974,16.8032305 3.78730064,16.8032305 L17.2129502,16.8032305 L17.2129502,3.69676949 C17.2129502,2.63334209 17.5712084,1.7511529 18.2887283,1.05020191 C19.0052446,0.35023058 19.9089182,0 21.0002509,0 C22.0895765,0 22.9927483,0.35023058 23.7112717,1.05020191 C24.4272863,1.7511529 24.7870498,2.63334209 24.7870498,3.69676949 L24.7870498,16.8032305 L38.2126994,16.8032305 C39.302025,16.8032305 40.2051968,17.1534611 40.924222,17.8534324" id="Fill-13" fill="#F459BA" mask="url(#mask-2)"></path>
                                </g>
                            </g>
                        </g>
                    </g>
                </g>
            </g>
        </g>
    </g>
</svg>