<?xml version="1.0" encoding="utf-8"?>
<!-- Generator: Adobe Illustrator 21.1.0, SVG Export Plug-In . SVG Version: 6.00 Build 0)  -->
<svg version="1.1" id="Layer_1" xmlns="http://www.w3.org/2000/svg" xmlns:xlink="http://www.w3.org/1999/xlink" x="0px" y="0px"
	 viewBox="0 0 44 44" style="enable-background:new 0 0 44 44;" xml:space="preserve">
<style type="text/css">
	.st0{fill:#FFFFFF;}
	.st1{fill:#6B35B6;}
</style>
<title>go-icon</title>
<desc>Created with Sketch.</desc>
<g id="Page-1">
	<g id="Desktop-Home" transform="translate(-805.000000, -3384.000000)">
		<g id="Footer" transform="translate(176.000000, 3302.000000)">
			<g id="Last-Col" transform="translate(402.000000, 0.000000)">
				<g id="Newsletter" transform="translate(1.000000, 0.000000)">
					<g id="Input" transform="translate(0.000000, 82.000000)">
						<g id="go-icon" transform="translate(226.000000, 0.000000)">
							<circle id="button-bg" class="st0" cx="22" cy="22" r="22"/>
							<path id="_x203A_" class="st1" d="M19.9,29.8l-3.2-5.5c-0.5-0.9-0.8-1.7-0.8-2.5s0.3-1.6,0.8-2.5l3.2-5.5
								c0.4-0.6,0.8-1,1.3-1.3c0.5-0.3,1.1-0.5,1.7-0.5c0.9,0,1.6,0.3,2.2,0.8c0.6,0.6,0.9,1.3,0.9,2.1c0,0.5-0.1,1-0.4,1.7
								l-2.4,5.1l2.4,5.1c0.3,0.5,0.4,1.1,0.4,1.6c0,0.9-0.3,1.6-1,2.1c-0.6,0.6-1.4,0.8-2.2,0.8c-0.6,0-1.1-0.1-1.6-0.4
								S20.2,30.4,19.9,29.8z"/>
						</g>
					</g>
				</g>
			</g>
		</g>
	</g>
</g>
</svg>
