<?xml version="1.0" encoding="UTF-8"?>
<svg width="1024px" height="200px" viewBox="0 0 1024 200" version="1.1" xmlns="http://www.w3.org/2000/svg" xmlns:xlink="http://www.w3.org/1999/xlink">
    <!-- Generator: Sketch 46.2 (44496) - http://www.bohemiancoding.com/sketch -->
    <title>bg-bottom</title>
    <desc>Created with Sketch.</desc>
    <defs></defs>
    <g id="Page-1" stroke="none" stroke-width="1" fill="none" fill-rule="evenodd">
        <g id="Desktop-Home" transform="translate(0.000000, -1225.000000)">
            <g id="bg-bottom" transform="translate(512.000000, 1325.000000) rotate(-180.000000) translate(-512.000000, -1325.000000) translate(0.000000, 1225.000000)">
                <path d="M10.9720681,0.0473579563 L1014.97207,98.1073836 L1014.97207,98.1073836 C1020.09405,98.6076441 1024,102.913673 1024,108.060026 L1024,200 L0,200 L0,10 L1.77635684e-15,10 C1.10000309e-15,4.4771525 4.4771525,1.67051541e-09 10,1.67051439e-09 C10.3245993,1.67051433e-09 10.649006,0.0158046985 10.9720681,0.0473579563 Z" id="Rectangle-2" fill="#F459BA" style="mix-blend-mode: multiply;"></path>
                <path d="M1024,1.67051439e-09 L1024,190 L1024,190 C1024,195.522847 1019.52285,200 1014,200 C1013.6754,200 1013.35099,199.984195 1013.02793,199.952642 L9.02793194,101.892616 L9.02793194,101.892616 C3.90595163,101.392356 -1.89096788e-14,97.0863268 -1.95399252e-14,91.9399744 L0,1.67051439e-09 L1024,1.67051439e-09 Z" id="Rectangle-2" fill="#7098FA" style="mix-blend-mode: multiply;" transform="translate(512.000000, 100.000000) scale(1, -1) translate(-512.000000, -100.000000) "></path>
            </g>
        </g>
    </g>
</svg>