<?xml version="1.0" encoding="UTF-8"?>
<svg width="1023px" height="100px" viewBox="0 0 1023 100" version="1.1" xmlns="http://www.w3.org/2000/svg" xmlns:xlink="http://www.w3.org/1999/xlink">
    <!-- Generator: Sketch 46.2 (44496) - http://www.bohemiancoding.com/sketch -->
    <title>bg-bar</title>
    <desc>Created with Sketch.</desc>
    <defs></defs>
    <g id="Page-1" stroke="none" stroke-width="1" fill="none" fill-rule="evenodd">
        <g id="Desktop-Agenda" transform="translate(-1.000000, -195.000000)">
            <g id="bg-bar" transform="translate(1.000000, 195.000000)">
                <path d="M10.1230218,0.847650826 L1014.12302,13.1999721 L1014.12302,13.1999721 C1019.59747,13.2673248 1024,17.7243511 1024,23.1992153 L1024,90.0005635 L1024,90.0005635 C1024,95.523411 1019.52285,100.000564 1014,100.000564 C1013.95899,100.000564 1013.91798,100.000311 1013.87698,99.9998068 L9.87697822,87.6474855 L9.87697822,87.6474855 C4.40252826,87.5801328 6.70477501e-16,83.1231066 0,77.6482423 L0,10.8468941 L0,10.8468941 C-6.76353751e-16,5.32404658 4.4771525,0.846894079 10,0.846894079 C10.0410084,0.846894079 10.0820165,0.847146333 10.1230218,0.847650826 Z" id="Rectangle-2" fill="#F459BA" style="mix-blend-mode: multiply;"></path>
                <path d="M0,90.0005368 L0,23.1992354 L1.77635684e-15,23.1992354 C1.10587934e-15,17.7243711 4.4025283,13.2673449 9.87697829,13.1999922 L1013.87698,0.847677613 L1013.87698,0.847677613 C1019.39941,0.779734598 1023.9313,5.2014696 1023.99924,10.7238992 C1023.99975,10.7649045 1024,10.8059125 1024,10.8469209 L1024,77.6482222 L1024,77.6482222 C1024,83.1230865 1019.59747,87.5801127 1014.12302,87.6474654 L10.1230217,99.99978 L10.1230217,99.99978 C4.60059215,100.067723 0.0686997608,95.645988 0.000756745707,90.1235585 C0.000252253341,90.0825532 5.3340926e-15,90.0415452 5.32907052e-15,90.0005368 Z" id="Rectangle-2" fill="#7098FA" style="mix-blend-mode: multiply;"></path>
            </g>
        </g>
    </g>
</svg>