<svg width="794" height="421" viewBox="0 0 794 421" xmlns="http://www.w3.org/2000/svg"><title>Bg</title><g fill="none" fill-rule="evenodd"><path d="M785.421 4.647l-2.325 41.088a8 8 0 0 1-3.73 6.32l-32.89 20.68a4 4 0 0 1-6.124-3.611l2.326-41.088a8 8 0 0 1 3.729-6.32l32.891-20.681a4 4 0 0 1 6.123 3.612z" fill="#7098FA" style="mix-blend-mode:multiply"/><path d="M793.421 15.647l-2.325 41.088a8 8 0 0 1-3.73 6.32l-32.89 20.68a4 4 0 0 1-6.124-3.611l2.326-41.088a8 8 0 0 1 3.729-6.32l32.891-20.681a4 4 0 0 1 6.123 3.612z" fill="#F459BA" style="mix-blend-mode:multiply"/><path d="M459.93 399.048l16.895-37.525a8 8 0 0 1 5.746-4.564l38.118-7.52a4 4 0 0 1 4.422 5.567l-16.896 37.525a8 8 0 0 1-5.746 4.564l-38.118 7.52a4 4 0 0 1-4.422-5.567z" fill="#7098FA" style="mix-blend-mode:multiply"/><path d="M466.93 415.048l16.895-37.525a8 8 0 0 1 5.746-4.564l38.118-7.52a4 4 0 0 1 4.422 5.567l-16.896 37.525a8 8 0 0 1-5.746 4.564l-38.118 7.52a4 4 0 0 1-4.422-5.567z" fill="#F459BA" style="mix-blend-mode:multiply"/><path d="M6.049 280.721l38.358 14.909a8 8 0 0 1 4.859 5.5l9.504 37.672a4 4 0 0 1-5.327 4.706L15.084 328.6a8 8 0 0 1-4.859-5.5L.721 285.428a4 4 0 0 1 5.328-4.707z" fill="#7098FA" style="mix-blend-mode:multiply"/><path d="M21.049 280.668l38.358 14.909a8 8 0 0 1 4.859 5.5l9.504 37.672a4 4 0 0 1-5.327 4.706l-38.359-14.908a8 8 0 0 1-4.859-5.5l-9.504-37.672a4 4 0 0 1 5.328-4.707z" fill="#F459BA" style="mix-blend-mode:multiply"/><path d="M243.896 18.329l41.15-.546a8 8 0 0 1 6.565 3.279l22.924 31.368a4 4 0 0 1-3.176 6.36l-41.15.546a8 8 0 0 1-6.565-3.279L240.719 24.69a4 4 0 0 1 3.177-6.36z" fill="#7098FA" style="mix-blend-mode:multiply"/><path d="M243.896 28.329l41.15-.546a8 8 0 0 1 6.565 3.279l22.924 31.368a4 4 0 0 1-3.176 6.36l-41.15.546a8 8 0 0 1-6.565-3.279L240.719 34.69a4 4 0 0 1 3.177-6.36z" fill="#F459BA" style="mix-blend-mode:multiply"/></g></svg>