<?xml version="1.0" encoding="UTF-8"?>
<svg width="794px" height="421px" viewBox="0 0 794 421" version="1.1" xmlns="http://www.w3.org/2000/svg" xmlns:xlink="http://www.w3.org/1999/xlink">
    <!-- Generator: Sketch 46.2 (44496) - http://www.bohemiancoding.com/sketch -->
    <title>Bg</title>
    <desc>Created with Sketch.</desc>
    <defs></defs>
    <g id="Page-1" stroke="none" stroke-width="1" fill="none" fill-rule="evenodd">
        <g id="Desktop-Home" transform="translate(-2.000000, -119.000000)">
            <g id="Background" transform="translate(-3.000000, 118.000000)">
                <g id="Bg">
                    <g id="Group" transform="translate(733.000000, 0.000000)">
                        <path d="M8.03807714,9.14065561 L47.7446712,19.9579825 L47.7446712,19.9579825 C50.2440338,20.6388876 52.2589959,22.4878461 53.151754,24.9196002 L66.5417253,61.3920969 L66.5417253,61.3920969 C67.3030698,63.4658977 66.2391137,65.764237 64.1653129,66.5255815 C63.385803,66.8117591 62.5365518,66.8482451 61.7353697,66.6299779 L22.0287756,55.8126509 L22.0287756,55.8126509 C19.5294131,55.1317458 17.514451,53.2827874 16.6216929,50.8510333 L3.23172152,14.3785366 L3.23172152,14.3785366 C2.47037706,12.3047358 3.53433314,10.0063965 5.60813393,9.24505201 C6.38764382,8.95887431 7.23689505,8.92238837 8.03807714,9.14065561 Z" id="Rectangle-3" fill="#7098FA" style="mix-blend-mode: multiply;" transform="translate(34.886723, 37.885317) rotate(78.000000) translate(-34.886723, -37.885317) "></path>
                        <path d="M16.0380771,20.1406556 L55.7446712,30.9579825 L55.7446712,30.9579825 C58.2440338,31.6388876 60.2589959,33.4878461 61.151754,35.9196002 L74.5417253,72.3920969 L74.5417253,72.3920969 C75.3030698,74.4658977 74.2391137,76.764237 72.1653129,77.5255815 C71.385803,77.8117591 70.5365518,77.8482451 69.7353697,77.6299779 L30.0287756,66.8126509 L30.0287756,66.8126509 C27.5294131,66.1317458 25.514451,64.2827874 24.6216929,61.8510333 L11.2317215,25.3785366 L11.2317215,25.3785366 C10.4703771,23.3047358 11.5343331,21.0063965 13.6081339,20.245052 C14.3876438,19.9588743 15.236895,19.9223884 16.0380771,20.1406556 Z" id="Rectangle-3-Copy-3" fill="#F459BA" style="mix-blend-mode: multiply;" transform="translate(42.886723, 48.885317) rotate(78.000000) translate(-42.886723, -48.885317) "></path>
                    </g>
                    <g id="Group-4" transform="translate(464.000000, 342.000000)">
                        <path d="M6.67148219,7.282383 L46.3780763,18.0997099 L46.3780763,18.0997099 C48.8774388,18.780615 50.8924009,20.6295735 51.785159,23.0613276 L65.1751304,59.5338243 L65.1751304,59.5338243 C65.9364749,61.6076251 64.8725188,63.9059644 62.798718,64.6673089 C62.0192081,64.9534865 61.1699569,64.9899725 60.3687748,64.7717053 L20.6621807,53.9543783 L20.6621807,53.9543783 C18.1628181,53.2734732 16.147856,51.4245148 15.2550979,48.9927607 L1.86512657,12.520264 L1.86512657,12.520264 C1.10378211,10.4464632 2.16773819,8.14812386 4.24153899,7.3867794 C5.02104887,7.10060171 5.8703001,7.06411577 6.67148219,7.282383 Z" id="Rectangle-3-Copy-2" fill="#7098FA" style="mix-blend-mode: multiply;" transform="translate(33.520128, 36.027044) rotate(-81.000000) translate(-33.520128, -36.027044) "></path>
                        <path d="M13.6714822,23.282383 L53.3780763,34.0997099 L53.3780763,34.0997099 C55.8774388,34.780615 57.8924009,36.6295735 58.785159,39.0613276 L72.1751304,75.5338243 L72.1751304,75.5338243 C72.9364749,77.6076251 71.8725188,79.9059644 69.798718,80.6673089 C69.0192081,80.9534865 68.1699569,80.9899725 67.3687748,80.7717053 L27.6621807,69.9543783 L27.6621807,69.9543783 C25.1628181,69.2734732 23.147856,67.4245148 22.2550979,64.9927607 L8.86512657,28.520264 L8.86512657,28.520264 C8.10378211,26.4464632 9.16773819,24.1481239 11.241539,23.3867794 C12.0210489,23.1006017 12.8703001,23.0641158 13.6714822,23.282383 Z" id="Rectangle-3-Copy-5" fill="#F459BA" style="mix-blend-mode: multiply;" transform="translate(40.520128, 52.027044) rotate(-81.000000) translate(-40.520128, -52.027044) "></path>
                    </g>
                    <g id="Group-7" transform="translate(0.000000, 281.000000)">
                        <path d="M7.89707473,3.37002215 L47.6036688,14.1873491 L47.6036688,14.1873491 C50.1030314,14.8682542 52.1179935,16.7172126 53.0107516,19.1489667 L66.4007229,55.6214634 L66.4007229,55.6214634 C67.1620674,57.6952642 66.0981113,59.9936035 64.0243105,60.754948 C63.2448006,61.0411257 62.3955494,61.0776116 61.5943673,60.8593444 L21.8877732,50.0420175 L21.8877732,50.0420175 C19.3884107,49.3611124 17.3734486,47.5121539 16.4806905,45.0803998 L3.09071911,8.60790313 L3.09071911,8.60790313 C2.32937465,6.53410234 3.39333073,4.235763 5.46713153,3.47441854 C6.24664141,3.18824085 7.09589264,3.15175491 7.89707473,3.37002215 Z" id="Rectangle-3-Copy-4" fill="#7098FA" style="mix-blend-mode: multiply;" transform="translate(34.745721, 32.114683) rotate(6.000000) translate(-34.745721, -32.114683) "></path>
                        <path d="M22.8970747,3.31699607 L62.6036688,14.134323 L62.6036688,14.134323 C65.1030314,14.8152281 67.1179935,16.6641865 68.0107516,19.0959406 L81.4007229,55.5684373 L81.4007229,55.5684373 C82.1620674,57.6422381 81.0981113,59.9405775 79.0243105,60.7019219 C78.2448006,60.9880996 77.3955494,61.0245856 76.5943673,60.8063183 L36.8877732,49.9889914 L36.8877732,49.9889914 C34.3884107,49.3080863 32.3734486,47.4591278 31.4806905,45.0273738 L18.0907191,8.55487706 L18.0907191,8.55487706 C17.3293747,6.48107626 18.3933307,4.18273693 20.4671315,3.42139247 C21.2466414,3.13521477 22.0958926,3.09872883 22.8970747,3.31699607 Z" id="Rectangle-3-Copy-7" fill="#F459BA" style="mix-blend-mode: multiply;" transform="translate(49.745721, 32.061657) rotate(6.000000) translate(-49.745721, -32.061657) "></path>
                    </g>
                    <g id="Group-2" transform="translate(244.000000, 3.000000)">
                        <path d="M11.778571,7.81483359 L51.4851651,18.6321605 L51.4851651,18.6321605 C53.9845276,19.3130656 55.9994897,21.1620241 56.8922478,23.5937782 L70.2822192,60.0662748 L70.2822192,60.0662748 C71.0435636,62.1400756 69.9796076,64.438415 67.9058068,65.1997594 C67.1262969,65.4859371 66.2770456,65.5224231 65.4758636,65.3041558 L25.7692695,54.4868289 L25.7692695,54.4868289 C23.2699069,53.8059238 21.2549448,51.9569654 20.3621867,49.5252113 L6.97221535,13.0527146 L6.97221535,13.0527146 C6.2108709,10.9789138 7.27482698,8.68057444 9.34862777,7.91922999 C10.1281377,7.63305229 10.9773889,7.59656635 11.778571,7.81483359 Z" id="Rectangle-3-Copy-6" fill="#7098FA" style="mix-blend-mode: multiply;" transform="translate(38.627217, 36.559495) rotate(-16.000000) translate(-38.627217, -36.559495) "></path>
                        <path d="M11.778571,17.8148336 L51.4851651,28.6321605 L51.4851651,28.6321605 C53.9845276,29.3130656 55.9994897,31.1620241 56.8922478,33.5937782 L70.2822192,70.0662748 L70.2822192,70.0662748 C71.0435636,72.1400756 69.9796076,74.438415 67.9058068,75.1997594 C67.1262969,75.4859371 66.2770456,75.5224231 65.4758636,75.3041558 L25.7692695,64.4868289 L25.7692695,64.4868289 C23.2699069,63.8059238 21.2549448,61.9569654 20.3621867,59.5252113 L6.97221535,23.0527146 L6.97221535,23.0527146 C6.2108709,20.9789138 7.27482698,18.6805744 9.34862777,17.91923 C10.1281377,17.6330523 10.9773889,17.5965663 11.778571,17.8148336 Z" id="Rectangle-3-Copy-6" fill="#F459BA" style="mix-blend-mode: multiply;" transform="translate(38.627217, 46.559495) rotate(-16.000000) translate(-38.627217, -46.559495) "></path>
                    </g>
                </g>
            </g>
        </g>
    </g>
</svg>