<?xml version="1.0" encoding="UTF-8"?>
<svg width="1024px" height="364px" viewBox="0 0 1024 364" version="1.1" xmlns="http://www.w3.org/2000/svg" xmlns:xlink="http://www.w3.org/1999/xlink">
    <!-- Generator: Sketch 46.2 (44496) - http://www.bohemiancoding.com/sketch -->
    <title>footer-bg</title>
    <desc>Created with Sketch.</desc>
    <defs></defs>
    <g id="Page-1" stroke="none" stroke-width="1" fill="none" fill-rule="evenodd">
        <g id="Desktop-Home" transform="translate(0.000000, -3223.000000)">
            <g id="footer-bg" transform="translate(0.000000, 3223.000000)">
                <path d="M10.5173317,0.0135033515 L1014.51733,52.0232475 L1014.51733,52.0232475 C1019.832,52.2985607 1024,56.6880639 1024,62.0098569 L1024,407.468566 L1024,407.468566 C1024,412.991414 1019.52285,417.468566 1014,417.468566 C1013.82747,417.468566 1013.65497,417.464101 1013.48267,417.455176 L9.48266833,365.445431 L9.48266833,365.445431 C4.16800148,365.170118 -1.3559123e-14,360.780615 -1.42108547e-14,355.458822 L0,10.0001128 L1.77635684e-15,10.0001128 C1.10000309e-15,4.47726528 4.4771525,0.000112783036 10,0.000112783036 C10.1725305,0.000112783036 10.3450322,0.00457780058 10.5173317,0.0135033515 Z" id="Rectangle-2" fill="#F459BA" style="mix-blend-mode: multiply;"></path>
                <path d="M0,407.468566 L0,62.0098569 L1.77635684e-15,62.0098569 C5.85132688e-15,56.6880639 4.16800148,52.2985607 9.48266833,52.0232475 L1013.48267,0.0135033515 L1013.48267,0.0135033515 C1018.99812,-0.272211043 1023.7009,3.96732902 1023.98661,9.48278111 C1023.99553,9.65508061 1024,9.82758225 1024,10.0001128 L1024,355.458822 L1024,355.458822 C1024,360.780615 1019.832,365.170118 1014.51733,365.445431 L10.5173317,417.455176 L10.5173317,417.455176 C5.00187958,417.74089 0.299104963,413.50135 0.0133905684,407.985898 C0.00446501754,407.813598 1.68652699e-14,407.641097 1.77635684e-14,407.468566 Z" id="Rectangle-2" fill="#7098FA" style="mix-blend-mode: multiply;"></path>
            </g>
        </g>
    </g>
</svg>