<?xml version="1.0" encoding="UTF-8"?>
<svg width="37px" height="37px" viewBox="0 0 37 37" version="1.1" xmlns="http://www.w3.org/2000/svg" xmlns:xlink="http://www.w3.org/1999/xlink">
    <!-- Generator: Sketch 46.2 (44496) - http://www.bohemiancoding.com/sketch -->
    <title>icon-instagramwhite</title>
    <desc>Created with Sketch.</desc>
    <defs></defs>
    <g id="Page-1" stroke="none" stroke-width="1" fill="none" fill-rule="evenodd">
        <g id="Desktop-Home" transform="translate(-244.000000, -3381.000000)" fill="#FFFFFF">
            <g id="Footer" transform="translate(176.000000, 3302.000000)">
                <g id="First-Col">
                    <g id="Social">
                        <g id="Social-Icons" transform="translate(20.000000, 79.828553)">
                            <path d="M74.1881274,2.28456522e-13 L57.9813098,2.28456522e-13 C52.4718639,0.00553646705 48.0066458,4.4698556 48,9.97930023 L48,26.1881274 C48.0044309,31.6991416 52.4702966,36.1659064 57.9813098,36.1714467 L74.1881274,36.1714467 C79.6994666,36.1659082 84.1659082,31.6994666 84.1714467,26.1881274 L84.1714467,9.97930023 C84.1636939,4.46953059 79.6978997,0.00553423496 74.1881274,0 L74.1881274,2.28456522e-13 Z M80.9622355,26.1901369 C80.9578087,29.928754 77.9287526,32.958709 74.1901369,32.9642451 L57.9813098,32.9642451 C54.2426941,32.958709 51.213638,29.928754 51.2092111,26.1901369 L51.2092111,9.98130976 C51.2136404,6.24301916 54.2430192,3.21364039 57.9813098,3.20921113 L74.1881274,3.20921113 C77.9272027,3.21253311 80.9578042,6.24223556 80.9622355,9.98130976 L80.9622355,26.1901369 L80.9622355,26.1901369 L80.9622355,26.1901369 Z M66.0917519,8.76554724 C62.3215449,8.76310856 58.9212207,11.0323497 57.4767349,14.5148671 C56.032249,17.9973845 56.828155,22.0071468 59.4932319,24.6739486 C62.1583087,27.3407505 66.1675552,28.1392508 69.6510065,26.6970185 C73.1344578,25.2547863 75.4058986,21.8559311 75.4058994,18.0857233 C75.4014692,12.939843 71.2316026,8.76907736 66.0857233,8.76353772 L66.0917519,8.76554724 Z M66.0917519,24.1966883 C63.6199145,24.1966882 61.3915079,22.7075818 60.4457645,20.423824 C59.5000211,18.1400662 60.0232177,15.5114736 61.7713581,13.763908 C63.5194986,12.0163425 66.1482631,11.4940104 68.4317097,12.4405048 C70.7151564,13.3869993 72.2035297,15.6158955 72.2027169,18.0877329 C72.1971742,21.4621306 69.4601256,24.1946833 66.0857233,24.1946788 L66.0917519,24.1966883 Z M75.8037853,6.04666017 C74.6833074,6.04836933 73.7200028,6.84118251 73.5027955,7.94040715 C73.2855881,9.03963179 73.8749469,10.139252 74.9105627,10.5670064 C75.9461785,10.9947607 77.1397436,10.6315656 77.7615627,9.69946317 C78.3833817,8.76736077 78.260345,7.52584139 77.4676719,6.73391766 C77.0240381,6.29244164 76.4236258,6.04461804 75.7977568,6.04465064 L75.8037853,6.04666017 Z" id="icon-instagram"></path>
                        </g>
                    </g>
                </g>
            </g>
        </g>
    </g>
</svg>