<?xml version="1.0" encoding="UTF-8"?>
<svg width="32px" height="28px" viewBox="0 0 32 28" version="1.1" xmlns="http://www.w3.org/2000/svg" xmlns:xlink="http://www.w3.org/1999/xlink">
    <!-- Generator: Sketch 46.2 (44496) - http://www.bohemiancoding.com/sketch -->
    <title>icon-twitter@3x</title>
    <desc>Created with Sketch.</desc>
    <defs></defs>
    <g id="Page-1" stroke="none" stroke-width="1" fill="none" fill-rule="evenodd">
        <g id="Desktop-Home" transform="translate(-314.000000, -3385.000000)" fill="#FFFFFF">
            <g id="Footer" transform="translate(176.000000, 3302.000000)">
                <g id="First-Col">
                    <g id="Social">
                        <g id="Social-Icons" transform="translate(20.000000, 79.828553)">
                            <path d="M149.654035,7.21218456 C148.473138,7.76037668 147.21422,8.12171413 145.922347,8.28326129 C147.295672,7.41130428 148.309837,6.07477473 148.779892,4.51741178 C147.513262,5.30776061 146.116417,5.86704281 144.654337,6.16924118 C143.454501,4.80856228 141.72999,4.0260232 139.915878,4.01904963 C136.243351,4.10790009 133.336855,7.15468406 133.421093,10.8273197 C133.41979,11.3484262 133.476404,11.8680635 133.589894,12.3766633 C128.304834,12.0699336 123.416283,9.47376204 120.202439,5.26696454 C119.623797,6.31241935 119.321539,7.48825308 119.324277,8.68315673 C119.306826,10.9295149 120.385163,13.0434451 122.213974,14.3480072 C121.177619,14.3120508 120.166538,14.0185336 119.272029,13.4939591 L119.272029,13.5803687 C119.218634,16.75484 121.388546,19.5358763 124.480718,20.2560101 C123.526142,20.5289284 122.520028,20.5688973 121.546811,20.3725626 C122.333155,23.0949034 124.78158,25.0023878 127.613567,25.0989649 C125.346252,26.9786823 122.494516,28.0090879 119.549344,28.0127759 C119.031383,28.0131809 118.513911,27.9809647 118,27.9163187 C120.938211,29.907711 124.405718,30.9730211 127.955186,30.9748155 C139.899801,30.9748155 146.430757,20.6036579 146.430757,11.6110344 C146.430757,11.3136247 146.430757,11.0222436 146.412671,10.7308625 C147.692518,9.75867469 148.789943,8.5673605 149.654035,7.21218456 L149.654035,7.21218456 Z" id="icon-twitter"></path>
                        </g>
                    </g>
                </g>
            </g>
        </g>
    </g>
</svg>