<?xml version="1.0" encoding="UTF-8"?>
<svg width="44px" height="44px" viewBox="0 0 44 44" version="1.1" xmlns="http://www.w3.org/2000/svg" xmlns:xlink="http://www.w3.org/1999/xlink">
    <!-- Generator: Sketch 46.2 (44496) - http://www.bohemiancoding.com/sketch -->
    <title>mail-icon</title>
    <desc>Created with Sketch.</desc>
    <defs></defs>
    <g id="Page-1" stroke="none" stroke-width="1" fill="none" fill-rule="evenodd">
        <g id="Desktop-Home" transform="translate(-805.000000, -3384.000000)">
            <g id="Footer" transform="translate(176.000000, 3302.000000)">
                <g id="Last-Col" transform="translate(402.000000, 0.000000)">
                    <g id="Newsletter" transform="translate(1.000000, 0.000000)">
                        <g id="Input" transform="translate(0.000000, 82.000000)">
                            <g id="mail-icon" transform="translate(226.000000, 0.000000)">
                                <circle id="button-bg" fill="#FFFFFF" cx="22" cy="22" r="22"></circle>
                                <path d="M32.78125,13 L11.51875,13 C10.6834375,13 10,13.6112695 10,14.3583767 L10,15.3880262 L22.15,21.1 L34.3,15.3880262 L34.3,14.3583767 C34.3,13.6112695 33.6165625,13 32.78125,13 M22.15,25.15 C21.7460125,25.15 21.390625,25.012525 20.63125,24.6586 L10,19.3 L10,29.5375 C10,30.341875 10.6834375,31 11.51875,31 L32.78125,31 C33.6165625,31 34.3,30.341875 34.3,29.5375 L34.3,19.3 L23.66875,24.6586 C22.909375,25.012525 22.5539875,25.15 22.15,25.15" id="Page-1" fill="#6B35B6"></path>
                            </g>
                        </g>
                    </g>
                </g>
            </g>
        </g>
    </g>
</svg>