<?xml version="1.0" encoding="UTF-8"?>
<svg width="8px" height="17px" viewBox="0 0 8 17" version="1.1" xmlns="http://www.w3.org/2000/svg" xmlns:xlink="http://www.w3.org/1999/xlink">
    <!-- Generator: Sketch 46.2 (44496) - http://www.bohemiancoding.com/sketch -->
    <title>nav-facebook</title>
    <desc>Created with Sketch.</desc>
    <defs></defs>
    <g id="Page-1" stroke="none" stroke-width="1" fill="none" fill-rule="evenodd">
        <g id="Desktop-Home" transform="translate(-904.000000, -39.000000)" fill="#333333">
            <g id="NAV" transform="translate(-1.000000, 0.000000)">
                <g id="Social-Icons" transform="translate(905.000000, 38.000000)">
                    <path d="M7.31290066,6.963309 L4.86790066,6.963309 L4.86790066,5.282309 C4.83555461,5.08512211 4.89304625,4.88379938 5.02464383,4.73342979 C5.15624141,4.5830602 5.34816614,4.49938806 5.54790066,4.505309 L7.27290066,4.505309 L7.27290066,1.730309 L4.89690066,1.721309 C3.9972342,1.67534247 3.12220908,2.02376094 2.50037914,2.67555859 C1.8785492,3.32735623 1.57167118,4.21780009 1.65990066,5.114309 L1.65990066,6.963309 L0.134900655,6.963309 L0.134900655,9.821309 L1.65990066,9.821309 L1.65990066,17.912309 L4.86790066,17.912309 L4.86790066,9.823309 L7.03190066,9.823309 L7.31290066,6.963309 Z" id="nav-facebook"></path>
                </g>
            </g>
        </g>
    </g>
</svg>