<?xml version="1.0" encoding="UTF-8"?>
<svg width="17px" height="14px" viewBox="0 0 17 14" version="1.1" xmlns="http://www.w3.org/2000/svg" xmlns:xlink="http://www.w3.org/1999/xlink">
    <!-- Generator: Sketch 46.2 (44496) - http://www.bohemiancoding.com/sketch -->
    <title>nav-twitter</title>
    <desc>Created with Sketch.</desc>
    <defs></defs>
    <g id="Page-1" stroke="none" stroke-width="1" fill="none" fill-rule="evenodd">
        <g id="Desktop-Home" transform="translate(-961.000000, -42.000000)" fill="#333333">
            <g id="NAV" transform="translate(-1.000000, 0.000000)">
                <g id="Social-Icons" transform="translate(905.000000, 38.000000)">
                    <path d="M73.4478013,6.087309 C72.8601516,6.36010589 72.2336758,6.53991827 71.5908013,6.620309 C72.2742091,6.18639696 72.7788881,5.52129965 73.0128013,4.746309 C72.3824883,5.13961035 71.6873763,5.41792599 70.9598013,5.568309 C70.362727,4.89119424 69.5045583,4.50177925 68.6018013,4.498309 C66.7742414,4.54252366 65.327882,6.05869501 65.3698013,7.886309 C65.3691527,8.14562725 65.3973256,8.4042144 65.4538013,8.657309 C62.8237968,8.50467106 60.3911065,7.21273798 58.7918013,5.119309 C58.5038517,5.63955876 58.3534388,6.22468899 58.3548013,6.819309 C58.3461174,7.9371644 58.8827303,8.98911965 59.7928013,9.638309 C59.2770799,9.62041604 58.7739358,9.47435304 58.3288013,9.213309 L58.3288013,9.256309 C58.3022304,10.8360214 59.3820436,12.2199487 60.9208013,12.578309 C60.4457758,12.7141213 59.9451034,12.7340111 59.4608013,12.636309 C59.8521096,13.9910277 61.0705195,14.9402493 62.4798013,14.988309 C61.3515174,15.9237129 59.9324076,16.4364737 58.4668013,16.438309 C58.2090485,16.4385105 57.9515388,16.4224788 57.6958013,16.390309 C59.1579434,17.3812857 60.8834793,17.911416 62.6498013,17.912309 C68.5938013,17.912309 71.8438013,12.751309 71.8438013,8.276309 C71.8438013,8.128309 71.8438013,7.983309 71.8348013,7.838309 C72.4716917,7.35451909 73.017803,6.76168531 73.4478013,6.087309 L73.4478013,6.087309 Z" id="nav-twitter"></path>
                </g>
            </g>
        </g>
    </g>
</svg>