<?xml version="1.0" encoding="UTF-8"?>
<svg width="18px" height="18px" viewBox="0 0 18 18" version="1.1" xmlns="http://www.w3.org/2000/svg" xmlns:xlink="http://www.w3.org/1999/xlink">
    <!-- Generator: Sketch 46.2 (44496) - http://www.bohemiancoding.com/sketch -->
    <title>nav-instagram</title>
    <desc>Created with Sketch.</desc>
    <defs></defs>
    <g id="Page-1" stroke="none" stroke-width="1" fill="none" fill-rule="evenodd">
        <g id="Desktop-Home" transform="translate(-928.000000, -38.000000)" fill="#333333">
            <g id="NAV" transform="translate(-1.000000, 0.000000)">
                <g id="Social-Icons" transform="translate(905.000000, 38.000000)">
                    <path d="M36.8010917,0.231243168 L28.8789919,0.231243168 C26.1859043,0.233949463 24.0032485,2.41616576 24,5.10925277 L24,13.0323348 C24.0021659,15.726189 26.1851382,17.9096008 28.8789919,17.912309 L36.8010917,17.912309 C39.4951048,17.9096017 41.6783585,15.726348 41.6810658,13.0323348 L41.6810658,5.10925277 C41.6772762,2.41600689 39.4943388,0.233948372 36.8010917,0.231243168 L36.8010917,0.231243168 Z M40.1123624,13.0333171 C40.1101985,14.860801 38.6295571,16.3418817 36.8020739,16.3445878 L28.8789919,16.3445878 C27.0515087,16.3418817 25.5708674,14.860801 25.5687035,13.0333171 L25.5687035,5.11023505 C25.5708685,3.28291079 27.0516676,1.8021117 28.8789919,1.79994662 L36.8010917,1.79994662 C38.6287995,1.80157045 40.1101963,3.28252776 40.1123624,5.11023505 L40.1123624,13.0333171 L40.1123624,13.0333171 L40.1123624,13.0333171 Z M32.8434798,4.51595479 C31.0005544,4.51476273 29.3384324,5.62399684 28.6323492,7.32629589 C27.9262661,9.02859493 28.3153151,10.988618 29.6180387,12.2921849 C30.9207624,13.5957517 32.8805334,13.9860689 34.5832889,13.2810873 C36.2860445,12.5761058 37.3963538,10.9147019 37.3963542,9.07177608 C37.3941886,6.55640395 35.3559045,4.51768035 32.8405329,4.5149725 L32.8434798,4.51595479 Z M32.8434798,12.0588939 C31.635214,12.0588939 30.5459403,11.3309996 30.0836489,10.2146696 C29.6213574,9.09833956 29.8771026,7.81344989 30.731616,6.95921748 C31.5861294,6.10498508 32.8711031,5.84966247 33.9872811,6.31232107 C35.103459,6.77497967 35.8309949,7.86449266 35.8305976,9.07275836 C35.8278883,10.7222071 34.4899839,12.0579139 32.8405329,12.0579116 L32.8434798,12.0588939 Z M37.5908459,3.18692801 C37.043142,3.18776346 36.5722664,3.57530069 36.4660926,4.11261575 C36.3599189,4.64993082 36.648005,5.18743925 37.1542273,5.39653104 C37.6604495,5.60562284 38.2438794,5.42808842 38.5478325,4.97246484 C38.8517857,4.51684126 38.7916437,3.90997071 38.404175,3.52286826 C38.1873211,3.30706913 37.8938319,3.18592978 37.5878991,3.18594572 L37.5908459,3.18692801 Z" id="nav-instagram"></path>
                </g>
            </g>
        </g>
    </g>
</svg>