<?xml version="1.0" encoding="UTF-8"?>
<svg width="44px" height="44px" viewBox="0 0 44 44" version="1.1" xmlns="http://www.w3.org/2000/svg" xmlns:xlink="http://www.w3.org/1999/xlink">
    <!-- Generator: Sketch 46.2 (44496) - http://www.bohemiancoding.com/sketch -->
    <title>search-icon</title>
    <desc>Created with Sketch.</desc>
    <defs></defs>
    <g id="Page-1" stroke="none" stroke-width="1" fill="none" fill-rule="evenodd">
        <g id="Desktop-Agenda" transform="translate(-933.000000, -222.000000)">
            <g id="FILTER" transform="translate(67.000000, 222.000000)">
                <g id="Search" transform="translate(42.000000, 0.000000)">
                    <g id="search-icon" transform="translate(824.000000, 0.000000)">
                        <circle id="button-bg" fill="#FFFFFF" cx="22" cy="22" r="22"></circle>
                        <g id="Page-1" transform="translate(10.000000, 10.000000)" fill="#6B35B6">
                            <g id="Fill-1">
                                <path d="M15.5201557,14 C18.5019104,14 21,11.5108729 21,8.45979986 C21,5.48898444 18.4614558,3 15.5201557,3 C12.4981612,3 10,5.52922025 10,8.45979986 C10,9.90515011 10.5237618,11.3101219 11.61174,12.3940632 C12.699575,13.4379114 14.1099011,14 15.5201557,14 M15.2367558,17.5763344 C13.1841122,17.5763344 11.1710302,16.867068 9.5130206,15.4876119 L7.89471285,19.4285648 L3.78956598,23.5270156 C3.35537045,23.8422919 2.88161333,24 2.36836475,24 C1.06584831,24 0,22.8570361 0,21.5960713 C0,21.0837299 0.157825515,20.5713886 0.473616835,20.1772583 L4.53948268,16.0788074 L8.52629548,14.4629292 C7.144726,12.8079041 6.43416046,10.7586086 6.43416046,8.70924312 C6.43416046,3.94074273 10.4604647,0 15.2367558,0 C19.9735555,0 24,4.01966683 24,8.74874018 C24,11.0344578 23.1708198,13.2808184 21.473459,14.9753406 C19.7366769,16.7094299 17.4867164,17.5763344 15.2367558,17.5763344" transform="translate(12.000000, 12.000000) scale(-1, 1) translate(-12.000000, -12.000000) "></path>
                            </g>
                        </g>
                    </g>
                </g>
            </g>
        </g>
    </g>
</svg>